M48
; DRILL file {KiCad (6.0.0)} date Fri May 27 19:13:22 2022
; FORMAT={-:-/ absolute / metric / decimal}
; #@! TF.CreationDate,2022-05-27T19:13:22+02:00
; #@! TF.GenerationSoftware,Kicad,Pcbnew,(6.0.0)
; #@! TF.FileFunction,Plated,1,2,PTH
FMAT,2
METRIC
; #@! TA.AperFunction,Plated,PTH,ViaDrill
T1C0.400
; #@! TA.AperFunction,Plated,PTH,ComponentDrill
T2C0.800
; #@! TA.AperFunction,Plated,PTH,ComponentDrill
T3C0.900
; #@! TA.AperFunction,Plated,PTH,ComponentDrill
T4C1.000
; #@! TA.AperFunction,Plated,PTH,ComponentDrill
T5C3.200
%
G90
G05
T1
X87.0Y-111.5
X87.066Y-121.434
X101.0Y-116.354
X102.186Y-113.814
T2
X64.69Y-101.0
X72.31Y-101.0
X127.88Y-100.5
X135.5Y-100.5
T3
X77.46Y-101.0
X80.0Y-101.0
X120.46Y-100.5
X123.0Y-100.5
T4
X53.922Y-113.814
X53.922Y-116.354
X53.922Y-118.894
X53.922Y-121.434
X53.922Y-123.974
X53.922Y-126.514
X53.922Y-129.054
X53.922Y-131.594
X56.462Y-113.814
X56.462Y-116.354
X56.462Y-118.894
X56.462Y-121.434
X56.462Y-123.974
X56.462Y-126.514
X56.462Y-129.054
X56.462Y-131.594
X66.73Y-113.814
X66.73Y-116.354
X66.73Y-118.894
X66.73Y-121.434
X66.73Y-123.974
X66.73Y-126.514
X66.73Y-129.054
X66.73Y-131.594
X69.27Y-113.814
X69.27Y-116.354
X69.27Y-118.894
X69.27Y-121.434
X69.27Y-123.974
X69.27Y-126.514
X69.27Y-129.054
X69.27Y-131.594
X79.538Y-113.814
X79.538Y-116.354
X79.538Y-118.894
X79.538Y-121.434
X79.538Y-123.974
X79.538Y-126.514
X79.538Y-129.054
X79.538Y-131.594
X82.078Y-113.814
X82.078Y-116.354
X82.078Y-118.894
X82.078Y-121.434
X82.078Y-123.974
X82.078Y-126.514
X82.078Y-129.054
X82.078Y-131.594
X90.906Y-99.46
X90.906Y-102.0
X90.906Y-143.23
X90.906Y-145.77
X92.345Y-113.814
X92.345Y-116.354
X92.345Y-118.894
X92.345Y-121.434
X92.345Y-123.974
X92.345Y-126.514
X92.345Y-129.054
X92.345Y-131.594
X93.446Y-99.46
X93.446Y-102.0
X93.446Y-143.23
X93.446Y-145.77
X94.885Y-113.814
X94.885Y-116.354
X94.885Y-118.894
X94.885Y-121.434
X94.885Y-123.974
X94.885Y-126.514
X94.885Y-129.054
X94.885Y-131.594
X95.986Y-99.46
X95.986Y-102.0
X95.986Y-143.23
X95.986Y-145.77
X98.526Y-99.46
X98.526Y-102.0
X98.526Y-143.23
X98.526Y-145.77
X101.066Y-99.46
X101.066Y-102.0
X101.066Y-143.23
X101.066Y-145.77
X103.606Y-99.46
X103.606Y-102.0
X103.606Y-143.23
X103.606Y-145.77
X105.153Y-113.814
X105.153Y-116.354
X105.153Y-118.894
X105.153Y-121.434
X105.153Y-123.974
X105.153Y-126.514
X105.153Y-129.054
X105.153Y-131.594
X106.146Y-99.46
X106.146Y-102.0
X106.146Y-143.23
X106.146Y-145.77
X107.693Y-113.814
X107.693Y-116.354
X107.693Y-118.894
X107.693Y-121.434
X107.693Y-123.974
X107.693Y-126.514
X107.693Y-129.054
X107.693Y-131.594
X108.686Y-99.46
X108.686Y-102.0
X108.686Y-143.23
X108.686Y-145.77
X117.961Y-113.814
X117.961Y-116.354
X117.961Y-118.894
X117.961Y-121.434
X117.961Y-123.974
X117.961Y-126.514
X117.961Y-129.054
X117.961Y-131.594
X120.501Y-113.814
X120.501Y-116.354
X120.501Y-118.894
X120.501Y-121.434
X120.501Y-123.974
X120.501Y-126.514
X120.501Y-129.054
X120.501Y-131.594
X130.768Y-113.814
X130.768Y-116.354
X130.768Y-118.894
X130.768Y-121.434
X130.768Y-123.974
X130.768Y-126.514
X130.768Y-129.054
X130.768Y-131.594
X133.308Y-113.814
X133.308Y-116.354
X133.308Y-118.894
X133.308Y-121.434
X133.308Y-123.974
X133.308Y-126.514
X133.308Y-129.054
X133.308Y-131.594
X143.46Y-113.814
X143.46Y-116.354
X143.46Y-118.894
X143.46Y-121.434
X143.46Y-123.974
X143.46Y-126.514
X143.46Y-129.054
X143.46Y-131.594
X146.0Y-113.814
X146.0Y-116.354
X146.0Y-118.894
X146.0Y-121.434
X146.0Y-123.974
X146.0Y-126.514
X146.0Y-129.054
X146.0Y-131.594
T5
X53.5Y-98.5
X53.5Y-146.5
X146.5Y-98.5
X146.5Y-146.0
T0
M30
