%TF.GenerationSoftware,KiCad,Pcbnew,(6.0.0)*%
%TF.CreationDate,2022-05-27T19:13:27+02:00*%
%TF.ProjectId,Eurorack bus board,4575726f-7261-4636-9b20-62757320626f,rev?*%
%TF.SameCoordinates,Original*%
%TF.FileFunction,Soldermask,Top*%
%TF.FilePolarity,Negative*%
%FSLAX46Y46*%
G04 Gerber Fmt 4.6, Leading zero omitted, Abs format (unit mm)*
G04 Created by KiCad (PCBNEW (6.0.0)) date 2022-05-27 19:13:27*
%MOMM*%
%LPD*%
G01*
G04 APERTURE LIST*
G04 Aperture macros list*
%AMRoundRect*
0 Rectangle with rounded corners*
0 $1 Rounding radius*
0 $2 $3 $4 $5 $6 $7 $8 $9 X,Y pos of 4 corners*
0 Add a 4 corners polygon primitive as box body*
4,1,4,$2,$3,$4,$5,$6,$7,$8,$9,$2,$3,0*
0 Add four circle primitives for the rounded corners*
1,1,$1+$1,$2,$3*
1,1,$1+$1,$4,$5*
1,1,$1+$1,$6,$7*
1,1,$1+$1,$8,$9*
0 Add four rect primitives between the rounded corners*
20,1,$1+$1,$2,$3,$4,$5,0*
20,1,$1+$1,$4,$5,$6,$7,0*
20,1,$1+$1,$6,$7,$8,$9,0*
20,1,$1+$1,$8,$9,$2,$3,0*%
G04 Aperture macros list end*
%ADD10RoundRect,0.250000X0.600000X0.600000X-0.600000X0.600000X-0.600000X-0.600000X0.600000X-0.600000X0*%
%ADD11C,1.700000*%
%ADD12C,6.400000*%
%ADD13R,1.800000X1.800000*%
%ADD14C,1.800000*%
%ADD15C,1.600000*%
%ADD16O,1.600000X1.600000*%
%ADD17RoundRect,0.250000X0.600000X-0.600000X0.600000X0.600000X-0.600000X0.600000X-0.600000X-0.600000X0*%
G04 APERTURE END LIST*
D10*
%TO.C,J7*%
X120500712Y-131594000D03*
D11*
X117960712Y-131594000D03*
X120500712Y-129054000D03*
X117960712Y-129054000D03*
X120500712Y-126514000D03*
X117960712Y-126514000D03*
X120500712Y-123974000D03*
X117960712Y-123974000D03*
X120500712Y-121434000D03*
X117960712Y-121434000D03*
X120500712Y-118894000D03*
X117960712Y-118894000D03*
X120500712Y-116354000D03*
X117960712Y-116354000D03*
X120500712Y-113814000D03*
X117960712Y-113814000D03*
%TD*%
D12*
%TO.C,H4*%
X53500000Y-146500000D03*
%TD*%
D10*
%TO.C,J8*%
X133308390Y-131594000D03*
D11*
X130768390Y-131594000D03*
X133308390Y-129054000D03*
X130768390Y-129054000D03*
X133308390Y-126514000D03*
X130768390Y-126514000D03*
X133308390Y-123974000D03*
X130768390Y-123974000D03*
X133308390Y-121434000D03*
X130768390Y-121434000D03*
X133308390Y-118894000D03*
X130768390Y-118894000D03*
X133308390Y-116354000D03*
X130768390Y-116354000D03*
X133308390Y-113814000D03*
X130768390Y-113814000D03*
%TD*%
D10*
%TO.C,J5*%
X94885356Y-131594000D03*
D11*
X92345356Y-131594000D03*
X94885356Y-129054000D03*
X92345356Y-129054000D03*
X94885356Y-126514000D03*
X92345356Y-126514000D03*
X94885356Y-123974000D03*
X92345356Y-123974000D03*
X94885356Y-121434000D03*
X92345356Y-121434000D03*
X94885356Y-118894000D03*
X92345356Y-118894000D03*
X94885356Y-116354000D03*
X92345356Y-116354000D03*
X94885356Y-113814000D03*
X92345356Y-113814000D03*
%TD*%
D13*
%TO.C,D1*%
X80000000Y-101000000D03*
D14*
X77460000Y-101000000D03*
%TD*%
D10*
%TO.C,J3*%
X69270000Y-131594000D03*
D11*
X66730000Y-131594000D03*
X69270000Y-129054000D03*
X66730000Y-129054000D03*
X69270000Y-126514000D03*
X66730000Y-126514000D03*
X69270000Y-123974000D03*
X66730000Y-123974000D03*
X69270000Y-121434000D03*
X66730000Y-121434000D03*
X69270000Y-118894000D03*
X66730000Y-118894000D03*
X69270000Y-116354000D03*
X66730000Y-116354000D03*
X69270000Y-113814000D03*
X66730000Y-113814000D03*
%TD*%
D10*
%TO.C,J4*%
X82077678Y-131594000D03*
D11*
X79537678Y-131594000D03*
X82077678Y-129054000D03*
X79537678Y-129054000D03*
X82077678Y-126514000D03*
X79537678Y-126514000D03*
X82077678Y-123974000D03*
X79537678Y-123974000D03*
X82077678Y-121434000D03*
X79537678Y-121434000D03*
X82077678Y-118894000D03*
X79537678Y-118894000D03*
X82077678Y-116354000D03*
X79537678Y-116354000D03*
X82077678Y-113814000D03*
X79537678Y-113814000D03*
%TD*%
D15*
%TO.C,R1*%
X72310000Y-101000000D03*
D16*
X64690000Y-101000000D03*
%TD*%
D10*
%TO.C,J6*%
X107693034Y-131594000D03*
D11*
X105153034Y-131594000D03*
X107693034Y-129054000D03*
X105153034Y-129054000D03*
X107693034Y-126514000D03*
X105153034Y-126514000D03*
X107693034Y-123974000D03*
X105153034Y-123974000D03*
X107693034Y-121434000D03*
X105153034Y-121434000D03*
X107693034Y-118894000D03*
X105153034Y-118894000D03*
X107693034Y-116354000D03*
X105153034Y-116354000D03*
X107693034Y-113814000D03*
X105153034Y-113814000D03*
%TD*%
D15*
%TO.C,R2*%
X135500000Y-100500000D03*
D16*
X127880000Y-100500000D03*
%TD*%
D12*
%TO.C,H3*%
X146500000Y-146000000D03*
%TD*%
D17*
%TO.C,J1*%
X90906000Y-102000000D03*
D11*
X90906000Y-99460000D03*
X93446000Y-102000000D03*
X93446000Y-99460000D03*
X95986000Y-102000000D03*
X95986000Y-99460000D03*
X98526000Y-102000000D03*
X98526000Y-99460000D03*
X101066000Y-102000000D03*
X101066000Y-99460000D03*
X103606000Y-102000000D03*
X103606000Y-99460000D03*
X106146000Y-102000000D03*
X106146000Y-99460000D03*
X108686000Y-102000000D03*
X108686000Y-99460000D03*
%TD*%
D10*
%TO.C,J2*%
X56462318Y-131594000D03*
D11*
X53922318Y-131594000D03*
X56462318Y-129054000D03*
X53922318Y-129054000D03*
X56462318Y-126514000D03*
X53922318Y-126514000D03*
X56462318Y-123974000D03*
X53922318Y-123974000D03*
X56462318Y-121434000D03*
X53922318Y-121434000D03*
X56462318Y-118894000D03*
X53922318Y-118894000D03*
X56462318Y-116354000D03*
X53922318Y-116354000D03*
X56462318Y-113814000D03*
X53922318Y-113814000D03*
%TD*%
D12*
%TO.C,H1*%
X53500000Y-98500000D03*
%TD*%
D10*
%TO.C,J9*%
X146000000Y-131594000D03*
D11*
X143460000Y-131594000D03*
X146000000Y-129054000D03*
X143460000Y-129054000D03*
X146000000Y-126514000D03*
X143460000Y-126514000D03*
X146000000Y-123974000D03*
X143460000Y-123974000D03*
X146000000Y-121434000D03*
X143460000Y-121434000D03*
X146000000Y-118894000D03*
X143460000Y-118894000D03*
X146000000Y-116354000D03*
X143460000Y-116354000D03*
X146000000Y-113814000D03*
X143460000Y-113814000D03*
%TD*%
D13*
%TO.C,D2*%
X123000000Y-100500000D03*
D14*
X120460000Y-100500000D03*
%TD*%
D12*
%TO.C,H2*%
X146500000Y-98500000D03*
%TD*%
D17*
%TO.C,J10*%
X90906000Y-145770000D03*
D11*
X90906000Y-143230000D03*
X93446000Y-145770000D03*
X93446000Y-143230000D03*
X95986000Y-145770000D03*
X95986000Y-143230000D03*
X98526000Y-145770000D03*
X98526000Y-143230000D03*
X101066000Y-145770000D03*
X101066000Y-143230000D03*
X103606000Y-145770000D03*
X103606000Y-143230000D03*
X106146000Y-145770000D03*
X106146000Y-143230000D03*
X108686000Y-145770000D03*
X108686000Y-143230000D03*
%TD*%
M02*
