%TF.GenerationSoftware,KiCad,Pcbnew,(6.0.0)*%
%TF.CreationDate,2022-05-27T19:13:27+02:00*%
%TF.ProjectId,Eurorack bus board,4575726f-7261-4636-9b20-62757320626f,rev?*%
%TF.SameCoordinates,Original*%
%TF.FileFunction,Legend,Top*%
%TF.FilePolarity,Positive*%
%FSLAX46Y46*%
G04 Gerber Fmt 4.6, Leading zero omitted, Abs format (unit mm)*
G04 Created by KiCad (PCBNEW (6.0.0)) date 2022-05-27 19:13:27*
%MOMM*%
%LPD*%
G01*
G04 APERTURE LIST*
%ADD10C,0.300000*%
%ADD11C,0.150000*%
%ADD12C,0.120000*%
%ADD13C,0.750000*%
G04 APERTURE END LIST*
D10*
X57671190Y-140857142D02*
X58337857Y-140857142D01*
X58623571Y-141904761D02*
X57671190Y-141904761D01*
X57671190Y-139904761D01*
X58623571Y-139904761D01*
X60337857Y-140571428D02*
X60337857Y-141904761D01*
X59480714Y-140571428D02*
X59480714Y-141619047D01*
X59575952Y-141809523D01*
X59766428Y-141904761D01*
X60052142Y-141904761D01*
X60242619Y-141809523D01*
X60337857Y-141714285D01*
X61290238Y-141904761D02*
X61290238Y-140571428D01*
X61290238Y-140952380D02*
X61385476Y-140761904D01*
X61480714Y-140666666D01*
X61671190Y-140571428D01*
X61861666Y-140571428D01*
X62814047Y-141904761D02*
X62623571Y-141809523D01*
X62528333Y-141714285D01*
X62433095Y-141523809D01*
X62433095Y-140952380D01*
X62528333Y-140761904D01*
X62623571Y-140666666D01*
X62814047Y-140571428D01*
X63099761Y-140571428D01*
X63290238Y-140666666D01*
X63385476Y-140761904D01*
X63480714Y-140952380D01*
X63480714Y-141523809D01*
X63385476Y-141714285D01*
X63290238Y-141809523D01*
X63099761Y-141904761D01*
X62814047Y-141904761D01*
X64337857Y-141904761D02*
X64337857Y-140571428D01*
X64337857Y-140952380D02*
X64433095Y-140761904D01*
X64528333Y-140666666D01*
X64718809Y-140571428D01*
X64909285Y-140571428D01*
X66433095Y-141904761D02*
X66433095Y-140857142D01*
X66337857Y-140666666D01*
X66147380Y-140571428D01*
X65766428Y-140571428D01*
X65575952Y-140666666D01*
X66433095Y-141809523D02*
X66242619Y-141904761D01*
X65766428Y-141904761D01*
X65575952Y-141809523D01*
X65480714Y-141619047D01*
X65480714Y-141428571D01*
X65575952Y-141238095D01*
X65766428Y-141142857D01*
X66242619Y-141142857D01*
X66433095Y-141047619D01*
X68242619Y-141809523D02*
X68052142Y-141904761D01*
X67671190Y-141904761D01*
X67480714Y-141809523D01*
X67385476Y-141714285D01*
X67290238Y-141523809D01*
X67290238Y-140952380D01*
X67385476Y-140761904D01*
X67480714Y-140666666D01*
X67671190Y-140571428D01*
X68052142Y-140571428D01*
X68242619Y-140666666D01*
X69099761Y-141904761D02*
X69099761Y-139904761D01*
X69290238Y-141142857D02*
X69861666Y-141904761D01*
X69861666Y-140571428D02*
X69099761Y-141333333D01*
X72909285Y-140857142D02*
X72242619Y-140857142D01*
X72242619Y-141904761D02*
X72242619Y-139904761D01*
X73195000Y-139904761D01*
X74242619Y-141904761D02*
X74052142Y-141809523D01*
X73956904Y-141619047D01*
X73956904Y-139904761D01*
X75766428Y-141809523D02*
X75575952Y-141904761D01*
X75195000Y-141904761D01*
X75004523Y-141809523D01*
X74909285Y-141619047D01*
X74909285Y-140857142D01*
X75004523Y-140666666D01*
X75195000Y-140571428D01*
X75575952Y-140571428D01*
X75766428Y-140666666D01*
X75861666Y-140857142D01*
X75861666Y-141047619D01*
X74909285Y-141238095D01*
X76528333Y-141904761D02*
X77575952Y-140571428D01*
X76528333Y-140571428D02*
X77575952Y-141904761D01*
X78337857Y-141904761D02*
X78337857Y-140571428D01*
X78337857Y-139904761D02*
X78242619Y-140000000D01*
X78337857Y-140095238D01*
X78433095Y-140000000D01*
X78337857Y-139904761D01*
X78337857Y-140095238D01*
X79290238Y-141904761D02*
X79290238Y-139904761D01*
X79290238Y-140666666D02*
X79480714Y-140571428D01*
X79861666Y-140571428D01*
X80052142Y-140666666D01*
X80147380Y-140761904D01*
X80242619Y-140952380D01*
X80242619Y-141523809D01*
X80147380Y-141714285D01*
X80052142Y-141809523D01*
X79861666Y-141904761D01*
X79480714Y-141904761D01*
X79290238Y-141809523D01*
X81956904Y-140571428D02*
X81956904Y-141904761D01*
X81099761Y-140571428D02*
X81099761Y-141619047D01*
X81195000Y-141809523D01*
X81385476Y-141904761D01*
X81671190Y-141904761D01*
X81861666Y-141809523D01*
X81956904Y-141714285D01*
X82814047Y-141809523D02*
X83004523Y-141904761D01*
X83385476Y-141904761D01*
X83575952Y-141809523D01*
X83671190Y-141619047D01*
X83671190Y-141523809D01*
X83575952Y-141333333D01*
X83385476Y-141238095D01*
X83099761Y-141238095D01*
X82909285Y-141142857D01*
X82814047Y-140952380D01*
X82814047Y-140857142D01*
X82909285Y-140666666D01*
X83099761Y-140571428D01*
X83385476Y-140571428D01*
X83575952Y-140666666D01*
D11*
X57787976Y-143547619D02*
X57835595Y-143500000D01*
X57930833Y-143452380D01*
X58168928Y-143452380D01*
X58264166Y-143500000D01*
X58311785Y-143547619D01*
X58359404Y-143642857D01*
X58359404Y-143738095D01*
X58311785Y-143880952D01*
X57740357Y-144452380D01*
X58359404Y-144452380D01*
X58978452Y-143452380D02*
X59073690Y-143452380D01*
X59168928Y-143500000D01*
X59216547Y-143547619D01*
X59264166Y-143642857D01*
X59311785Y-143833333D01*
X59311785Y-144071428D01*
X59264166Y-144261904D01*
X59216547Y-144357142D01*
X59168928Y-144404761D01*
X59073690Y-144452380D01*
X58978452Y-144452380D01*
X58883214Y-144404761D01*
X58835595Y-144357142D01*
X58787976Y-144261904D01*
X58740357Y-144071428D01*
X58740357Y-143833333D01*
X58787976Y-143642857D01*
X58835595Y-143547619D01*
X58883214Y-143500000D01*
X58978452Y-143452380D01*
X59692738Y-143547619D02*
X59740357Y-143500000D01*
X59835595Y-143452380D01*
X60073690Y-143452380D01*
X60168928Y-143500000D01*
X60216547Y-143547619D01*
X60264166Y-143642857D01*
X60264166Y-143738095D01*
X60216547Y-143880952D01*
X59645119Y-144452380D01*
X60264166Y-144452380D01*
X60645119Y-143547619D02*
X60692738Y-143500000D01*
X60787976Y-143452380D01*
X61026071Y-143452380D01*
X61121309Y-143500000D01*
X61168928Y-143547619D01*
X61216547Y-143642857D01*
X61216547Y-143738095D01*
X61168928Y-143880952D01*
X60597500Y-144452380D01*
X61216547Y-144452380D01*
X63216547Y-143690476D02*
X63121309Y-143642857D01*
X62930833Y-143642857D01*
X62835595Y-143690476D01*
X62740357Y-143785714D01*
X62692738Y-143880952D01*
X62692738Y-144071428D01*
X62740357Y-144166666D01*
X62835595Y-144261904D01*
X62930833Y-144309523D01*
X63121309Y-144309523D01*
X63216547Y-144261904D01*
X63026071Y-143309523D02*
X62787976Y-143357142D01*
X62549880Y-143500000D01*
X62407023Y-143738095D01*
X62359404Y-143976190D01*
X62407023Y-144214285D01*
X62549880Y-144452380D01*
X62787976Y-144595238D01*
X63026071Y-144642857D01*
X63264166Y-144595238D01*
X63502261Y-144452380D01*
X63645119Y-144214285D01*
X63692738Y-143976190D01*
X63645119Y-143738095D01*
X63502261Y-143500000D01*
X63264166Y-143357142D01*
X63026071Y-143309523D01*
X65216547Y-143928571D02*
X64883214Y-143928571D01*
X64883214Y-144452380D02*
X64883214Y-143452380D01*
X65359404Y-143452380D01*
X65740357Y-144452380D02*
X65740357Y-143785714D01*
X65740357Y-143976190D02*
X65787976Y-143880952D01*
X65835595Y-143833333D01*
X65930833Y-143785714D01*
X66026071Y-143785714D01*
X66740357Y-144404761D02*
X66645119Y-144452380D01*
X66454642Y-144452380D01*
X66359404Y-144404761D01*
X66311785Y-144309523D01*
X66311785Y-143928571D01*
X66359404Y-143833333D01*
X66454642Y-143785714D01*
X66645119Y-143785714D01*
X66740357Y-143833333D01*
X66787976Y-143928571D01*
X66787976Y-144023809D01*
X66311785Y-144119047D01*
X67645119Y-144452380D02*
X67645119Y-143452380D01*
X67645119Y-144404761D02*
X67549880Y-144452380D01*
X67359404Y-144452380D01*
X67264166Y-144404761D01*
X67216547Y-144357142D01*
X67168928Y-144261904D01*
X67168928Y-143976190D01*
X67216547Y-143880952D01*
X67264166Y-143833333D01*
X67359404Y-143785714D01*
X67549880Y-143785714D01*
X67645119Y-143833333D01*
X68121309Y-144452380D02*
X68121309Y-143785714D01*
X68121309Y-143976190D02*
X68168928Y-143880952D01*
X68216547Y-143833333D01*
X68311785Y-143785714D01*
X68407023Y-143785714D01*
X68740357Y-144452380D02*
X68740357Y-143785714D01*
X68740357Y-143452380D02*
X68692738Y-143500000D01*
X68740357Y-143547619D01*
X68787976Y-143500000D01*
X68740357Y-143452380D01*
X68740357Y-143547619D01*
X69216547Y-144452380D02*
X69216547Y-143452380D01*
X69311785Y-144071428D02*
X69597500Y-144452380D01*
X69597500Y-143785714D02*
X69216547Y-144166666D01*
X70645119Y-143452380D02*
X70978452Y-144452380D01*
X71311785Y-143452380D01*
X71645119Y-144452380D02*
X71645119Y-143785714D01*
X71645119Y-143452380D02*
X71597500Y-143500000D01*
X71645119Y-143547619D01*
X71692738Y-143500000D01*
X71645119Y-143452380D01*
X71645119Y-143547619D01*
X72121309Y-144452380D02*
X72121309Y-143452380D01*
X72216547Y-144071428D02*
X72502261Y-144452380D01*
X72502261Y-143785714D02*
X72121309Y-144166666D01*
X73073690Y-144452380D02*
X72978452Y-144404761D01*
X72930833Y-144309523D01*
X72930833Y-143452380D01*
X73883214Y-143785714D02*
X73883214Y-144452380D01*
X73454642Y-143785714D02*
X73454642Y-144309523D01*
X73502261Y-144404761D01*
X73597500Y-144452380D01*
X73740357Y-144452380D01*
X73835595Y-144404761D01*
X73883214Y-144357142D01*
X74359404Y-143785714D02*
X74359404Y-144452380D01*
X74359404Y-143880952D02*
X74407023Y-143833333D01*
X74502261Y-143785714D01*
X74645119Y-143785714D01*
X74740357Y-143833333D01*
X74787976Y-143928571D01*
X74787976Y-144452380D01*
X75692738Y-144452380D02*
X75692738Y-143452380D01*
X75692738Y-144404761D02*
X75597500Y-144452380D01*
X75407023Y-144452380D01*
X75311785Y-144404761D01*
X75264166Y-144357142D01*
X75216547Y-144261904D01*
X75216547Y-143976190D01*
X75264166Y-143880952D01*
X75311785Y-143833333D01*
X75407023Y-143785714D01*
X75597500Y-143785714D01*
X75692738Y-143833333D01*
%TO.C,J7*%
X113095092Y-123037333D02*
X113809378Y-123037333D01*
X113952235Y-123084952D01*
X114047473Y-123180190D01*
X114095092Y-123323047D01*
X114095092Y-123418285D01*
X113095092Y-122656380D02*
X113095092Y-121989714D01*
X114095092Y-122418285D01*
%TO.C,J8*%
X125902770Y-123037333D02*
X126617056Y-123037333D01*
X126759913Y-123084952D01*
X126855151Y-123180190D01*
X126902770Y-123323047D01*
X126902770Y-123418285D01*
X126331342Y-122418285D02*
X126283723Y-122513523D01*
X126236104Y-122561142D01*
X126140866Y-122608761D01*
X126093247Y-122608761D01*
X125998009Y-122561142D01*
X125950390Y-122513523D01*
X125902770Y-122418285D01*
X125902770Y-122227809D01*
X125950390Y-122132571D01*
X125998009Y-122084952D01*
X126093247Y-122037333D01*
X126140866Y-122037333D01*
X126236104Y-122084952D01*
X126283723Y-122132571D01*
X126331342Y-122227809D01*
X126331342Y-122418285D01*
X126378961Y-122513523D01*
X126426580Y-122561142D01*
X126521818Y-122608761D01*
X126712294Y-122608761D01*
X126807532Y-122561142D01*
X126855151Y-122513523D01*
X126902770Y-122418285D01*
X126902770Y-122227809D01*
X126855151Y-122132571D01*
X126807532Y-122084952D01*
X126712294Y-122037333D01*
X126521818Y-122037333D01*
X126426580Y-122084952D01*
X126378961Y-122132571D01*
X126331342Y-122227809D01*
%TO.C,J5*%
X87479736Y-123037333D02*
X88194022Y-123037333D01*
X88336879Y-123084952D01*
X88432117Y-123180190D01*
X88479736Y-123323047D01*
X88479736Y-123418285D01*
X87479736Y-122084952D02*
X87479736Y-122561142D01*
X87955927Y-122608761D01*
X87908308Y-122561142D01*
X87860689Y-122465904D01*
X87860689Y-122227809D01*
X87908308Y-122132571D01*
X87955927Y-122084952D01*
X88051165Y-122037333D01*
X88289260Y-122037333D01*
X88384498Y-122084952D01*
X88432117Y-122132571D01*
X88479736Y-122227809D01*
X88479736Y-122465904D01*
X88432117Y-122561142D01*
X88384498Y-122608761D01*
%TO.C,D1*%
X77991904Y-104412380D02*
X77991904Y-103412380D01*
X78230000Y-103412380D01*
X78372857Y-103460000D01*
X78468095Y-103555238D01*
X78515714Y-103650476D01*
X78563333Y-103840952D01*
X78563333Y-103983809D01*
X78515714Y-104174285D01*
X78468095Y-104269523D01*
X78372857Y-104364761D01*
X78230000Y-104412380D01*
X77991904Y-104412380D01*
X79515714Y-104412380D02*
X78944285Y-104412380D01*
X79230000Y-104412380D02*
X79230000Y-103412380D01*
X79134761Y-103555238D01*
X79039523Y-103650476D01*
X78944285Y-103698095D01*
X76968095Y-98111428D02*
X77730000Y-98111428D01*
X78730000Y-98492380D02*
X78158571Y-98492380D01*
X78444285Y-98492380D02*
X78444285Y-97492380D01*
X78349047Y-97635238D01*
X78253809Y-97730476D01*
X78158571Y-97778095D01*
X79110952Y-97587619D02*
X79158571Y-97540000D01*
X79253809Y-97492380D01*
X79491904Y-97492380D01*
X79587142Y-97540000D01*
X79634761Y-97587619D01*
X79682380Y-97682857D01*
X79682380Y-97778095D01*
X79634761Y-97920952D01*
X79063333Y-98492380D01*
X79682380Y-98492380D01*
X79968095Y-97492380D02*
X80301428Y-98492380D01*
X80634761Y-97492380D01*
%TO.C,J3*%
X61864380Y-123037333D02*
X62578666Y-123037333D01*
X62721523Y-123084952D01*
X62816761Y-123180190D01*
X62864380Y-123323047D01*
X62864380Y-123418285D01*
X61864380Y-122656380D02*
X61864380Y-122037333D01*
X62245333Y-122370666D01*
X62245333Y-122227809D01*
X62292952Y-122132571D01*
X62340571Y-122084952D01*
X62435809Y-122037333D01*
X62673904Y-122037333D01*
X62769142Y-122084952D01*
X62816761Y-122132571D01*
X62864380Y-122227809D01*
X62864380Y-122513523D01*
X62816761Y-122608761D01*
X62769142Y-122656380D01*
%TO.C,J4*%
X74672058Y-123037333D02*
X75386344Y-123037333D01*
X75529201Y-123084952D01*
X75624439Y-123180190D01*
X75672058Y-123323047D01*
X75672058Y-123418285D01*
X75005392Y-122132571D02*
X75672058Y-122132571D01*
X74624439Y-122370666D02*
X75338725Y-122608761D01*
X75338725Y-121989714D01*
%TO.C,R1*%
X68333333Y-103822380D02*
X68000000Y-103346190D01*
X67761904Y-103822380D02*
X67761904Y-102822380D01*
X68142857Y-102822380D01*
X68238095Y-102870000D01*
X68285714Y-102917619D01*
X68333333Y-103012857D01*
X68333333Y-103155714D01*
X68285714Y-103250952D01*
X68238095Y-103298571D01*
X68142857Y-103346190D01*
X67761904Y-103346190D01*
X69285714Y-103822380D02*
X68714285Y-103822380D01*
X69000000Y-103822380D02*
X69000000Y-102822380D01*
X68904761Y-102965238D01*
X68809523Y-103060476D01*
X68714285Y-103108095D01*
X68285714Y-99082380D02*
X67714285Y-99082380D01*
X68000000Y-99082380D02*
X68000000Y-98082380D01*
X67904761Y-98225238D01*
X67809523Y-98320476D01*
X67714285Y-98368095D01*
X68714285Y-99082380D02*
X68714285Y-98082380D01*
X69285714Y-99082380D02*
X68857142Y-98510952D01*
X69285714Y-98082380D02*
X68714285Y-98653809D01*
%TO.C,J6*%
X100287414Y-123037333D02*
X101001700Y-123037333D01*
X101144557Y-123084952D01*
X101239795Y-123180190D01*
X101287414Y-123323047D01*
X101287414Y-123418285D01*
X100287414Y-122132571D02*
X100287414Y-122323047D01*
X100335034Y-122418285D01*
X100382653Y-122465904D01*
X100525510Y-122561142D01*
X100715986Y-122608761D01*
X101096938Y-122608761D01*
X101192176Y-122561142D01*
X101239795Y-122513523D01*
X101287414Y-122418285D01*
X101287414Y-122227809D01*
X101239795Y-122132571D01*
X101192176Y-122084952D01*
X101096938Y-122037333D01*
X100858843Y-122037333D01*
X100763605Y-122084952D01*
X100715986Y-122132571D01*
X100668367Y-122227809D01*
X100668367Y-122418285D01*
X100715986Y-122513523D01*
X100763605Y-122561142D01*
X100858843Y-122608761D01*
%TO.C,R2*%
X131523333Y-103322380D02*
X131190000Y-102846190D01*
X130951904Y-103322380D02*
X130951904Y-102322380D01*
X131332857Y-102322380D01*
X131428095Y-102370000D01*
X131475714Y-102417619D01*
X131523333Y-102512857D01*
X131523333Y-102655714D01*
X131475714Y-102750952D01*
X131428095Y-102798571D01*
X131332857Y-102846190D01*
X130951904Y-102846190D01*
X131904285Y-102417619D02*
X131951904Y-102370000D01*
X132047142Y-102322380D01*
X132285238Y-102322380D01*
X132380476Y-102370000D01*
X132428095Y-102417619D01*
X132475714Y-102512857D01*
X132475714Y-102608095D01*
X132428095Y-102750952D01*
X131856666Y-103322380D01*
X132475714Y-103322380D01*
X131475714Y-98582380D02*
X130904285Y-98582380D01*
X131190000Y-98582380D02*
X131190000Y-97582380D01*
X131094761Y-97725238D01*
X130999523Y-97820476D01*
X130904285Y-97868095D01*
X131904285Y-98582380D02*
X131904285Y-97582380D01*
X132475714Y-98582380D02*
X132047142Y-98010952D01*
X132475714Y-97582380D02*
X131904285Y-98153809D01*
%TO.C,J1*%
X99166666Y-105452380D02*
X99166666Y-106166666D01*
X99119047Y-106309523D01*
X99023809Y-106404761D01*
X98880952Y-106452380D01*
X98785714Y-106452380D01*
X100166666Y-106452380D02*
X99595238Y-106452380D01*
X99880952Y-106452380D02*
X99880952Y-105452380D01*
X99785714Y-105595238D01*
X99690476Y-105690476D01*
X99595238Y-105738095D01*
%TO.C,J2*%
X59952380Y-123037333D02*
X60666666Y-123037333D01*
X60809523Y-123084952D01*
X60904761Y-123180190D01*
X60952380Y-123323047D01*
X60952380Y-123418285D01*
X60047619Y-122608761D02*
X60000000Y-122561142D01*
X59952380Y-122465904D01*
X59952380Y-122227809D01*
X60000000Y-122132571D01*
X60047619Y-122084952D01*
X60142857Y-122037333D01*
X60238095Y-122037333D01*
X60380952Y-122084952D01*
X60952380Y-122656380D01*
X60952380Y-122037333D01*
%TO.C,J9*%
X138594380Y-123037333D02*
X139308666Y-123037333D01*
X139451523Y-123084952D01*
X139546761Y-123180190D01*
X139594380Y-123323047D01*
X139594380Y-123418285D01*
X139594380Y-122513523D02*
X139594380Y-122323047D01*
X139546761Y-122227809D01*
X139499142Y-122180190D01*
X139356285Y-122084952D01*
X139165809Y-122037333D01*
X138784857Y-122037333D01*
X138689619Y-122084952D01*
X138642000Y-122132571D01*
X138594380Y-122227809D01*
X138594380Y-122418285D01*
X138642000Y-122513523D01*
X138689619Y-122561142D01*
X138784857Y-122608761D01*
X139022952Y-122608761D01*
X139118190Y-122561142D01*
X139165809Y-122513523D01*
X139213428Y-122418285D01*
X139213428Y-122227809D01*
X139165809Y-122132571D01*
X139118190Y-122084952D01*
X139022952Y-122037333D01*
%TO.C,D2*%
X120991904Y-103912380D02*
X120991904Y-102912380D01*
X121230000Y-102912380D01*
X121372857Y-102960000D01*
X121468095Y-103055238D01*
X121515714Y-103150476D01*
X121563333Y-103340952D01*
X121563333Y-103483809D01*
X121515714Y-103674285D01*
X121468095Y-103769523D01*
X121372857Y-103864761D01*
X121230000Y-103912380D01*
X120991904Y-103912380D01*
X121944285Y-103007619D02*
X121991904Y-102960000D01*
X122087142Y-102912380D01*
X122325238Y-102912380D01*
X122420476Y-102960000D01*
X122468095Y-103007619D01*
X122515714Y-103102857D01*
X122515714Y-103198095D01*
X122468095Y-103340952D01*
X121896666Y-103912380D01*
X122515714Y-103912380D01*
X119968095Y-97611428D02*
X120730000Y-97611428D01*
X120349047Y-97992380D02*
X120349047Y-97230476D01*
X121730000Y-97992380D02*
X121158571Y-97992380D01*
X121444285Y-97992380D02*
X121444285Y-96992380D01*
X121349047Y-97135238D01*
X121253809Y-97230476D01*
X121158571Y-97278095D01*
X122110952Y-97087619D02*
X122158571Y-97040000D01*
X122253809Y-96992380D01*
X122491904Y-96992380D01*
X122587142Y-97040000D01*
X122634761Y-97087619D01*
X122682380Y-97182857D01*
X122682380Y-97278095D01*
X122634761Y-97420952D01*
X122063333Y-97992380D01*
X122682380Y-97992380D01*
X122968095Y-96992380D02*
X123301428Y-97992380D01*
X123634761Y-96992380D01*
%TO.C,J10*%
X98986476Y-138452380D02*
X98986476Y-139166666D01*
X98938857Y-139309523D01*
X98843619Y-139404761D01*
X98700761Y-139452380D01*
X98605523Y-139452380D01*
X99986476Y-139452380D02*
X99415047Y-139452380D01*
X99700761Y-139452380D02*
X99700761Y-138452380D01*
X99605523Y-138595238D01*
X99510285Y-138690476D01*
X99415047Y-138738095D01*
X100605523Y-138452380D02*
X100700761Y-138452380D01*
X100796000Y-138500000D01*
X100843619Y-138547619D01*
X100891238Y-138642857D01*
X100938857Y-138833333D01*
X100938857Y-139071428D01*
X100891238Y-139261904D01*
X100843619Y-139357142D01*
X100796000Y-139404761D01*
X100700761Y-139452380D01*
X100605523Y-139452380D01*
X100510285Y-139404761D01*
X100462666Y-139357142D01*
X100415047Y-139261904D01*
X100367428Y-139071428D01*
X100367428Y-138833333D01*
X100415047Y-138642857D01*
X100462666Y-138547619D01*
X100510285Y-138500000D01*
X100605523Y-138452380D01*
D12*
%TO.C,J7*%
X122480712Y-120654000D02*
X123790712Y-120654000D01*
D13*
X114912712Y-137436000D02*
X123548712Y-137436000D01*
D12*
X114670712Y-136804000D02*
X114670712Y-108604000D01*
X122480712Y-120654000D02*
X122480712Y-120654000D01*
X123790712Y-136804000D02*
X114670712Y-136804000D01*
X122480712Y-135504000D02*
X115980712Y-135504000D01*
X122480712Y-109904000D02*
X122480712Y-120654000D01*
X122480712Y-124754000D02*
X122480712Y-135504000D01*
X123790712Y-124754000D02*
X122480712Y-124754000D01*
X123790712Y-108604000D02*
X123790712Y-136804000D01*
X114670712Y-117624000D02*
X123790712Y-117624000D01*
X114670712Y-108604000D02*
X123790712Y-108604000D01*
X115980712Y-135504000D02*
X115980712Y-109904000D01*
X115980712Y-109904000D02*
X122480712Y-109904000D01*
D13*
%TO.C,J8*%
X127720390Y-137436000D02*
X136356390Y-137436000D01*
D12*
X127478390Y-117624000D02*
X136598390Y-117624000D01*
X127478390Y-108604000D02*
X136598390Y-108604000D01*
X136598390Y-136804000D02*
X127478390Y-136804000D01*
X135288390Y-135504000D02*
X128788390Y-135504000D01*
X136598390Y-108604000D02*
X136598390Y-136804000D01*
X128788390Y-109904000D02*
X135288390Y-109904000D01*
X135288390Y-109904000D02*
X135288390Y-120654000D01*
X135288390Y-124754000D02*
X135288390Y-135504000D01*
X136598390Y-124754000D02*
X135288390Y-124754000D01*
X127478390Y-136804000D02*
X127478390Y-108604000D01*
X128788390Y-135504000D02*
X128788390Y-109904000D01*
X135288390Y-120654000D02*
X135288390Y-120654000D01*
X135288390Y-120654000D02*
X136598390Y-120654000D01*
%TO.C,J5*%
X96865356Y-120654000D02*
X98175356Y-120654000D01*
X89055356Y-136804000D02*
X89055356Y-108604000D01*
X96865356Y-109904000D02*
X96865356Y-120654000D01*
X89055356Y-108604000D02*
X98175356Y-108604000D01*
X89055356Y-117624000D02*
X98175356Y-117624000D01*
X98175356Y-136804000D02*
X89055356Y-136804000D01*
X96865356Y-135504000D02*
X90365356Y-135504000D01*
X96865356Y-124754000D02*
X96865356Y-135504000D01*
X98175356Y-108604000D02*
X98175356Y-136804000D01*
D13*
X89297356Y-137436000D02*
X97933356Y-137436000D01*
D12*
X90365356Y-135504000D02*
X90365356Y-109904000D01*
X98175356Y-124754000D02*
X96865356Y-124754000D01*
X90365356Y-109904000D02*
X96865356Y-109904000D01*
X96865356Y-120654000D02*
X96865356Y-120654000D01*
%TO.C,D1*%
X80290000Y-102236000D02*
X80290000Y-102080000D01*
X80290000Y-99920000D02*
X80290000Y-99764000D01*
X77688870Y-102079837D02*
G75*
G03*
X79770961Y-102080000I1041130J1079837D01*
G01*
X79770961Y-99920000D02*
G75*
G03*
X77688870Y-99920163I-1040961J-1080000D01*
G01*
X77057665Y-102078608D02*
G75*
G03*
X80290000Y-102235516I1672335J1078609D01*
G01*
X80290000Y-99764484D02*
G75*
G03*
X77057665Y-99921392I-1560000J-1235517D01*
G01*
%TO.C,J3*%
X64750000Y-109904000D02*
X71250000Y-109904000D01*
X71250000Y-120654000D02*
X71250000Y-120654000D01*
X71250000Y-124754000D02*
X71250000Y-135504000D01*
X72560000Y-124754000D02*
X71250000Y-124754000D01*
X63440000Y-108604000D02*
X72560000Y-108604000D01*
X64750000Y-135504000D02*
X64750000Y-109904000D01*
X63440000Y-136804000D02*
X63440000Y-108604000D01*
X72560000Y-108604000D02*
X72560000Y-136804000D01*
X72560000Y-136804000D02*
X63440000Y-136804000D01*
D13*
X63682000Y-137436000D02*
X72318000Y-137436000D01*
D12*
X71250000Y-120654000D02*
X72560000Y-120654000D01*
X71250000Y-135504000D02*
X64750000Y-135504000D01*
X71250000Y-109904000D02*
X71250000Y-120654000D01*
X63440000Y-117624000D02*
X72560000Y-117624000D01*
%TO.C,J4*%
X76247678Y-136804000D02*
X76247678Y-108604000D01*
X84057678Y-135504000D02*
X77557678Y-135504000D01*
X76247678Y-117624000D02*
X85367678Y-117624000D01*
X77557678Y-109904000D02*
X84057678Y-109904000D01*
X84057678Y-120654000D02*
X85367678Y-120654000D01*
X76247678Y-108604000D02*
X85367678Y-108604000D01*
X85367678Y-124754000D02*
X84057678Y-124754000D01*
X84057678Y-109904000D02*
X84057678Y-120654000D01*
X84057678Y-124754000D02*
X84057678Y-135504000D01*
X85367678Y-136804000D02*
X76247678Y-136804000D01*
X77557678Y-135504000D02*
X77557678Y-109904000D01*
X84057678Y-120654000D02*
X84057678Y-120654000D01*
X85367678Y-108604000D02*
X85367678Y-136804000D01*
D13*
X76489678Y-137436000D02*
X85125678Y-137436000D01*
D12*
%TO.C,R1*%
X71770000Y-102040000D02*
X71770000Y-102370000D01*
X65230000Y-102370000D02*
X65230000Y-102040000D01*
X71770000Y-99630000D02*
X65230000Y-99630000D01*
X65230000Y-99630000D02*
X65230000Y-99960000D01*
X71770000Y-99960000D02*
X71770000Y-99630000D01*
X71770000Y-102370000D02*
X65230000Y-102370000D01*
%TO.C,J6*%
X109673034Y-109904000D02*
X109673034Y-120654000D01*
X101863034Y-108604000D02*
X110983034Y-108604000D01*
X109673034Y-120654000D02*
X109673034Y-120654000D01*
X109673034Y-135504000D02*
X103173034Y-135504000D01*
D13*
X102105034Y-137436000D02*
X110741034Y-137436000D01*
D12*
X101863034Y-117624000D02*
X110983034Y-117624000D01*
X110983034Y-108604000D02*
X110983034Y-136804000D01*
X109673034Y-120654000D02*
X110983034Y-120654000D01*
X103173034Y-135504000D02*
X103173034Y-109904000D01*
X109673034Y-124754000D02*
X109673034Y-135504000D01*
X103173034Y-109904000D02*
X109673034Y-109904000D01*
X101863034Y-136804000D02*
X101863034Y-108604000D01*
X110983034Y-136804000D02*
X101863034Y-136804000D01*
X110983034Y-124754000D02*
X109673034Y-124754000D01*
%TO.C,R2*%
X134960000Y-99130000D02*
X128420000Y-99130000D01*
X128420000Y-99130000D02*
X128420000Y-99460000D01*
X134960000Y-99460000D02*
X134960000Y-99130000D01*
X134960000Y-101540000D02*
X134960000Y-101870000D01*
X128420000Y-101870000D02*
X128420000Y-101540000D01*
X134960000Y-101870000D02*
X128420000Y-101870000D01*
%TO.C,J1*%
X86996000Y-103980000D02*
X86996000Y-97480000D01*
X113896000Y-105290000D02*
X85696000Y-105290000D01*
X97746000Y-103980000D02*
X86996000Y-103980000D01*
X112596000Y-103980000D02*
X101846000Y-103980000D01*
X113896000Y-96170000D02*
X113896000Y-105290000D01*
X101846000Y-103980000D02*
X101846000Y-105290000D01*
X86996000Y-97480000D02*
X112596000Y-97480000D01*
X85696000Y-96170000D02*
X113896000Y-96170000D01*
X85696000Y-105290000D02*
X85696000Y-96170000D01*
D13*
X85064000Y-96412000D02*
X85064000Y-105048000D01*
D12*
X104876000Y-96170000D02*
X104876000Y-105290000D01*
X112596000Y-97480000D02*
X112596000Y-103980000D01*
X101846000Y-103980000D02*
X101846000Y-103980000D01*
X97746000Y-105290000D02*
X97746000Y-103980000D01*
%TO.C,J2*%
X58442318Y-120654000D02*
X58442318Y-120654000D01*
X50632318Y-117624000D02*
X59752318Y-117624000D01*
X50632318Y-108604000D02*
X59752318Y-108604000D01*
X51942318Y-109904000D02*
X58442318Y-109904000D01*
D13*
X50874318Y-137436000D02*
X59510318Y-137436000D01*
D12*
X59752318Y-108604000D02*
X59752318Y-136804000D01*
X58442318Y-135504000D02*
X51942318Y-135504000D01*
X59752318Y-124754000D02*
X58442318Y-124754000D01*
X58442318Y-109904000D02*
X58442318Y-120654000D01*
X59752318Y-136804000D02*
X50632318Y-136804000D01*
X50632318Y-136804000D02*
X50632318Y-108604000D01*
X51942318Y-135504000D02*
X51942318Y-109904000D01*
X58442318Y-120654000D02*
X59752318Y-120654000D01*
X58442318Y-124754000D02*
X58442318Y-135504000D01*
%TO.C,J9*%
X141480000Y-135504000D02*
X141480000Y-109904000D01*
X140170000Y-108604000D02*
X149290000Y-108604000D01*
D13*
X140412000Y-137436000D02*
X149048000Y-137436000D01*
D12*
X147980000Y-120654000D02*
X149290000Y-120654000D01*
X149290000Y-108604000D02*
X149290000Y-136804000D01*
X147980000Y-124754000D02*
X147980000Y-135504000D01*
X141480000Y-109904000D02*
X147980000Y-109904000D01*
X147980000Y-135504000D02*
X141480000Y-135504000D01*
X140170000Y-136804000D02*
X140170000Y-108604000D01*
X147980000Y-109904000D02*
X147980000Y-120654000D01*
X149290000Y-136804000D02*
X140170000Y-136804000D01*
X147980000Y-120654000D02*
X147980000Y-120654000D01*
X140170000Y-117624000D02*
X149290000Y-117624000D01*
X149290000Y-124754000D02*
X147980000Y-124754000D01*
%TO.C,D2*%
X123290000Y-99420000D02*
X123290000Y-99264000D01*
X123290000Y-101736000D02*
X123290000Y-101580000D01*
X120057665Y-101578608D02*
G75*
G03*
X123290000Y-101735516I1672335J1078609D01*
G01*
X120688870Y-101579837D02*
G75*
G03*
X122770961Y-101580000I1041130J1079837D01*
G01*
X123290000Y-99264484D02*
G75*
G03*
X120057665Y-99421392I-1560000J-1235517D01*
G01*
X122770961Y-99420000D02*
G75*
G03*
X120688870Y-99420163I-1040961J-1080000D01*
G01*
%TO.C,J10*%
X112596000Y-141250000D02*
X112596000Y-147750000D01*
X85696000Y-149060000D02*
X85696000Y-139940000D01*
X113896000Y-149060000D02*
X85696000Y-149060000D01*
X112596000Y-147750000D02*
X101846000Y-147750000D01*
X86996000Y-141250000D02*
X112596000Y-141250000D01*
D13*
X85064000Y-140182000D02*
X85064000Y-148818000D01*
D12*
X101846000Y-147750000D02*
X101846000Y-149060000D01*
X97746000Y-149060000D02*
X97746000Y-147750000D01*
X97746000Y-147750000D02*
X86996000Y-147750000D01*
X85696000Y-139940000D02*
X113896000Y-139940000D01*
X104876000Y-139940000D02*
X104876000Y-149060000D01*
X101846000Y-147750000D02*
X101846000Y-147750000D01*
X86996000Y-147750000D02*
X86996000Y-141250000D01*
X113896000Y-139940000D02*
X113896000Y-149060000D01*
%TD*%
M02*
